<?xml version="1.0" encoding="UTF-8"?>
<svg version="1.1" viewBox="0 0 2044 1144" width="511" height="286" xmlns="http://www.w3.org/2000/svg">
<path transform="translate(634,616)" d="m0 0 4 2 96 96 2 1v2l4 2 2 2-1 4-15 15-7 8-124 124-8 10-1-2 2-9 9-49 1-6h-374l-11-1 2-11 12-65 11-62 3-14 385-1z" fill="#1F42B9"/>
<path transform="translate(708,211)" d="m0 0h3l7 8 95 95 3 2-1 4-8 7-23 23-1 2h-2v2h-2v2h-2v2h-2v2h-2v2h-2v2h-2v2h-2v2h-2v2h-2v2h-2v2h-2v2h-2l-2 4h-2l-2 4h-2l-2 4h-2l-2 4h-2l-2 4h-2l-2 4h-2l-2 4h-2l-2 4h-2l-2 4-12 12-8 7-36 36-5 6h-2l1-8 10-54-1-1h-382l-1-5 9-48 15-81 3-17 1-1 384-1 5-24z" fill="#1F42B9"/>
<path transform="translate(1562,404)" d="m0 0h75l-4 8-14 24-16 28-14 24-30 52-16 27-13 23-10 17-2 5 7 11 14 24 16 27 13 22 21 35 19 32 15 25 17 29 3 5v3h-75l-4-4-15-27-10-17-12-21-7-12-10-26-15-28-10-19-5-9h-4l-14 26-10 19-15 29-12 22-9 15-16 28-12 17-3 3-6 1-30 1h-32l1-4 6-10 15-26 14-24 12-20 28-48 17-29 7-11 6-11 14-24 1-6-8-15-28-48-30-52-14-24-15-26-20-35-2-5h62l11 1 6 9 14 24 14 23 14 25 23 45 12 22h3l11-19 7-14 10-19 7-15 4-10 15-27 9-15 16-27z" fill="#FAFBFC"/>
<path transform="translate(860,273)" d="m0 0h295l1 5v53l-2 1h-113l-1 476-1 13-2 1h-61l-1-3-1-32v-455l-66 1h-35l-12-1-2-1v-55z" fill="#FCFCFC"/>
<path transform="translate(277,468)" d="m0 0h265l1 3-5 25-10 54-9 52-2 1h-265l1-10 8-42 14-77z" fill="#03A3FD"/>
<path transform="translate(1199,406)" d="m0 0h65l1 1 1 9-1 375-1 30-2 1h-61l-1-3-1-46-1-277v-84z" fill="#FBFBFC"/>
<path transform="translate(1226,267)" d="m0 0h17l11 4 9 7 6 9 3 8v19l-4 10-4 6-7 7-8 4-7 2h-20l-10-3-8-6-6-7-4-9-1-4v-18l4-10 5-7 10-7 10-4z" fill="#FDFDFD"/>
<path transform="translate(1040,334)" d="m0 0 1 4-1 470-1 13-2 1h-61l-1-3v-18h1l1 12 2 6 58 1v-255l1-228z" fill="#1F42B9"/>
<path transform="translate(860,273)" d="m0 0h295l1 5v53l-2 1h-111l1-3h97l11-2v-52l-288 1-2 5-3 3v-8z" fill="#1F42B9"/>
<path transform="translate(1321,405)" d="m0 0h62l11 1 6 9 14 24 14 23 14 25 23 45 12 22v2l-4-2-3-6-5-9-4-8-9-17-9-19-6-11-9-15-3-6-6-10-8-13-9-15-5-9-5-7-65-1 3 8 9 16 20 34 13 23 8 14 12 20 6 12 6 9 7 12 9 15 6 12 6 9 8 16-2 2-8-15-28-48-30-52-14-24-15-26-20-35z" fill="#1F42B9"/>
<path transform="translate(1438,615)" d="m0 0 1 4-3 5-8 13-6 11-7 11-10 16-6 12-12 20-9 16-6 9-8 15-6 9-7 12-9 16-10 16-6 12-3 7 61 1 2-4 6-8 9-15 10-18 8-13 3-6 6-8 9-19 8-16 11-21 6-11 10-17 1-4 4-1-2 5-12 22-12 23-14 27-12 22-9 15-16 28-12 17-3 3-6 1-30 1h-32l1-4 6-10 15-26 14-24 12-20 28-48 17-29 7-11 6-11z" fill="#1F42B9"/>
<path transform="translate(1199,528)" d="m0 0h1l1 20 1 48v83l1 141 57-1 1-11 2-8h1v21l-2 1h-61l-1-3-1-46z" fill="#1F42B9"/>
<path transform="translate(975,439)" d="m0 0h1l2 53-1 227-2 68h-1v-38z" fill="#1F42B9"/>
<path transform="translate(1226,267)" d="m0 0h9v1l-14 4-12 5-8 8-4 8-1 8v13l2 6 6 10 6 5 8 4h25l9-3 6-4 7-9 2-4 1-7v-15l-2-9-6-10-8-4-12-5-4-2h7l11 4 9 7 6 9 3 8v19l-4 10-4 6-7 7-8 4-7 2h-20l-10-3-8-6-6-7-4-9-1-4v-18l4-10 5-7 10-7 10-4z" fill="#1F42B9"/>
<path transform="translate(955,328)" d="m0 0h16l3 3v1l-66 1h-20v-1l20-2z" fill="#2346BA"/>
<path transform="translate(1479,660)" d="m0 0 4 1 4 5 3 9 11 20 7 12 8 16v4h-2l-8-17-13-23-12-24z" fill="#2043B9"/>
<path transform="translate(1514,489)" d="m0 0h1v6l-17 33-8 14-6 12-2 2-3-1 12-20 7-14 10-19z" fill="#1F42B9"/>
<path transform="translate(1199,406)" d="m0 0h65l1 5-3-3h-63z" fill="#2144B9"/>
<path transform="translate(1438,615)" d="m0 0 1 4-3 5-7 11h-2l2-5z" fill="#2346BA"/>
<path transform="translate(859,328)" d="m0 0 12 1 3 2-2 1h-11l-2-1z" fill="#1F42B9"/>
<path transform="translate(585,882)" d="m0 0" fill="#1F42B9"/>
</svg>
